<svg id="Capa_1" enable-background="new 0 0 512 512" height="512" viewBox="0 0 512 512" width="512" xmlns="http://www.w3.org/2000/svg"><g><g><path d="m478.741 356.817h-445.482c-14.232 0-25.769-11.537-25.769-25.769v-266.118c0-14.232 11.537-25.769 25.769-25.769h445.481c14.232 0 25.769 11.537 25.769 25.769v266.118c.001 14.232-11.536 25.769-25.768 25.769z" fill="#d8eafb"/></g><g><path d="m478.776 39.161h-16.175v250.013c0 14.213-11.522 25.735-25.734 25.735h-429.377v16.175c0 14.213 11.522 25.735 25.734 25.735h445.551c14.213 0 25.734-11.522 25.734-25.735v-266.189c.001-14.213-11.521-25.734-25.733-25.734z" fill="#b3d8fb"/></g><g><path d="m7.49 294.411v36.672c0 14.213 11.522 25.735 25.734 25.735h445.551c14.213 0 25.734-11.522 25.734-25.735v-36.672z" fill="#7c8b96"/></g><g><path d="m462.066 294.411c-2.42 11.701-12.782 20.497-25.2 20.497h-429.376v16.175c0 14.213 11.522 25.735 25.734 25.735h445.551c14.213 0 25.734-11.522 25.734-25.735v-36.672z" fill="#465961"/></g><g><path d="m478.776 364.307h-445.552c-18.319 0-33.224-14.904-33.224-33.224v-266.188c0-18.32 14.905-33.225 33.224-33.225h445.551c18.32 0 33.224 14.905 33.224 33.224v266.188c.001 18.321-14.904 33.225-33.223 33.225zm-445.552-317.657c-10.061 0-18.245 8.184-18.245 18.245v266.188c0 10.061 8.184 18.245 18.245 18.245h445.551c10.061 0 18.245-8.184 18.245-18.245v-266.188c0-10.061-8.184-18.245-18.245-18.245z" fill="#465961"/></g><g><g><g><path d="m145.271 231.802c1.148 15.59-2.605 28.574-15.745 29.541s-25.165-16.871-26.313-32.461 9.014-23.028 22.155-23.996 18.755 11.326 19.903 26.916z" fill="#fdad9d"/></g><g><path d="m270.789 231.802c-1.148 15.59 2.605 28.574 15.745 29.541s25.165-16.871 26.313-32.461-9.014-23.028-22.155-23.996-18.755 11.326-19.903 26.916z" fill="#fdad9d"/></g><g><path d="m270.789 231.802c-1.148 15.59 2.605 28.574 15.745 29.541s25.165-16.871 26.313-32.461-9.014-23.028-22.155-23.996-18.755 11.326-19.903 26.916z" fill="#f59380"/></g><g><path d="m153.408 230.207h109.245v102.916h-109.245z" fill="#fdad9d"/></g><g><path d="m236.944 230.207h25.709v102.916h-25.709z" fill="#f59380"/></g><g><path d="m264.665 75.736c-1.184-.294-2.417.276-2.949 1.375-5.742 11.862-17.891 20.045-31.954 20.045h-55.462c-25.565.001-46.289 20.726-46.289 46.291v68.587c0 43.2 35.021 78.221 78.221 78.221h4.717c43.2 0 78.221-35.021 78.221-78.221v-52.027c0-7.221 1.748-14.31 4.929-20.792 2.93-5.972 4.579-12.686 4.579-19.788 0-21.177-14.369-38.809-34.013-43.691z" fill="#9d6b6b"/></g><g><path d="m264.665 75.737c-1.184-.294-2.417.276-2.949 1.375-.278.573-.583 1.131-.89 1.686 6.516 7.807 10.424 17.874 10.424 28.909 0 7.102-1.648 13.816-4.579 19.788-3.181 6.482-4.929 13.572-4.929 20.792v52.027c0 43.2-35.021 78.221-78.221 78.221h-4.717c-5.644 0-11.146-.603-16.451-1.739 12.513 8.494 27.615 13.459 43.878 13.459h4.717c43.2 0 78.221-35.021 78.221-78.221v-52.027c0-7.221 1.749-14.31 4.929-20.792 2.93-5.972 4.578-12.686 4.579-19.788.001-21.177-14.368-38.809-34.012-43.69z" fill="#785252"/></g></g><g><path d="m264.314 316.648h-112.568c-79.67 0-144.256 64.586-144.256 144.256 0 6.592 5.344 11.936 11.936 11.936h377.209c6.592 0 11.936-5.344 11.936-11.936-.001-79.67-64.586-144.256-144.257-144.256z" fill="#dd636e"/></g><g><path d="m264.314 316.648h-76.337c79.671 0 144.256 64.586 144.256 144.256 0 6.592-5.344 11.935-11.936 11.935h76.337c6.592 0 11.936-5.344 11.936-11.935 0-79.671-64.585-144.256-144.256-144.256z" fill="#d82e3d"/></g></g><g><path d="m434.943 164.631-49.803-28.754c-4.667-2.694-10.5.674-10.5 6.062v57.508c0 5.389 5.833 8.756 10.5 6.062l49.803-28.754c4.666-2.694 4.666-9.43 0-12.124z" fill="#7c8b96"/></g><g><path d="m434.957 164.639-8.702-5.024-51.615 29.8v10.049c0 5.381 5.825 8.745 10.486 6.054l49.832-28.771c4.659-2.69 4.659-9.417-.001-12.108z" fill="#465961"/></g><g><path d="m478.776 31.67h-445.552c-18.319 0-33.224 14.905-33.224 33.225v20.031c0 4.137 3.353 7.49 7.49 7.49s7.49-3.353 7.49-7.49v-20.031c0-10.061 8.184-18.245 18.245-18.245h445.551c10.061 0 18.245 8.184 18.245 18.245v222.027h-226.878v-12.989c2.462-2.355 4.8-4.84 6.969-7.472 2.067.99 6.271 2.411 10.473 2.412 17.179 0 31.327-20.354 32.732-39.441.889-12.072-3.841-19.389-7.967-23.401-4.026-3.915-9.392-6.571-15.691-7.853v-38.171c0-5.892 1.439-11.942 4.163-17.493 3.546-7.227 5.344-14.995 5.344-23.088 0-24.195-16.324-45.15-39.695-50.958-4.593-1.139-9.432 1.119-11.498 5.38-4.723 9.757-14.384 15.818-25.212 15.818h-55.461c-29.654.001-53.779 24.127-53.779 53.78v54.523c-6.785 1.184-12.55 3.916-16.812 8.061-4.125 4.012-8.856 11.329-7.967 23.401 1.406 19.088 15.553 39.441 32.733 39.441 3.172-.039 6.975-.713 11.255-2.843 1.941 2.387 4.004 4.669 6.187 6.834v36.417c-37.299 1.416-71.19 16.353-96.904 40.047h-15.79c-10.061 0-18.245-8.184-18.245-18.245v-29.182h102.49c4.137 0 7.49-3.353 7.49-7.49s-3.353-7.49-7.49-7.49h-102.488v-169.506c0-4.137-3.353-7.49-7.49-7.49s-7.49 3.353-7.49 7.49v213.669c0 18.32 14.905 33.224 33.224 33.224h1.578c-21.728 26.26-34.802 59.93-34.802 96.597 0 10.711 8.715 19.426 19.426 19.426h250.649c4.137 0 7.49-3.353 7.49-7.49s-3.353-7.49-7.49-7.49h-250.649c-2.452 0-4.446-1.994-4.446-4.446 0-75.413 61.353-136.766 136.766-136.766h112.568c75.413 0 136.766 61.353 136.766 136.766 0 2.452-1.994 4.446-4.446 4.446h-92.964c-4.137 0-7.49 3.353-7.49 7.49s3.353 7.49 7.49 7.49h92.964c10.711 0 19.426-8.715 19.426-19.426 0-36.667-13.074-70.337-34.802-96.596h97.518c18.32 0 33.224-14.905 33.224-33.224v-266.189c0-18.32-14.905-33.225-33.224-33.225zm-176.871 185.1c2.678 2.604 3.845 6.494 3.473 11.562-.939 12.747-10.534 26.121-18.294 25.542-.468-.034-.882-.097-1.273-.171 6.652-11.903 10.537-25.543 10.807-40.058 2.132.753 3.922 1.797 5.287 3.125zm-172.93 37.104c-7.814.583-17.354-12.796-18.294-25.542-.373-5.068.795-8.959 3.473-11.562 1.597-1.554 3.766-2.728 6.399-3.489.209 14.551 4.052 28.234 10.676 40.179-.635.197-1.37.349-2.254.414zm126.188 55.284h-94.266v-24.433c13.161 8.238 28.696 13.019 45.335 13.019h4.716c16.165 0 31.297-4.503 44.214-12.313v23.727zm-44.214-26.393h-4.716c-39.002 0-70.731-31.729-70.731-70.731v-68.587c0-21.394 17.405-38.8 38.799-38.801h55.462c14.953 0 28.922-7.95 36.666-20.564 14.749 5.267 24.759 19.308 24.759 35.344 0 5.785-1.282 11.333-3.813 16.489-3.725 7.594-5.694 15.925-5.694 24.091v52.027c-.001 39.003-31.73 70.732-70.732 70.732zm286.071 48.318c0 10.061-8.184 18.245-18.245 18.245h-111.73c-25.713-23.694-59.604-38.631-96.903-40.047v-7.38h226.878z"/><path d="m388.87 212.004 49.832-28.771c4.534-2.618 7.239-7.306 7.239-12.541 0-5.234-2.705-9.922-7.239-12.54l-49.832-28.77c-4.535-2.618-9.947-2.618-14.48 0-4.534 2.618-7.24 7.306-7.24 12.541v57.541c.226 7.193 5.571 14.25 14.479 14.503 2.487 0 4.974-.655 7.241-1.963zm-6.741-69.217 48.334 27.906-48.334 27.905z"/></g></g></svg>